<svg width="201" height="44" viewBox="0 0 201 44" xmlns="http://www.w3.org/2000/svg">
<path fill="#FFFFFF" fill-rule="evenodd" clip-rule="evenodd" d="M53.4263 36.2758V16.1737C53.4263 15.3533 54.1271 14.6873 54.9878 14.6873H62.6068V36.2758H72.6053C73.469 36.2758 74.1688 36.9399 74.1688 37.7641V42.4807C74.1688 43.3011 73.469 43.9687 72.6053 43.9687H43.4278C42.5639 43.9687 41.8673 43.3011 41.8673 42.4822V37.7641C41.8673 36.9399 42.5639 36.2758 43.4278 36.2758H53.4263ZM62.6087 1.48653V7.69444H54.9878C54.127 7.69444 53.4273 7.02836 53.4273 6.20744V1.48653C53.4273 0.66711 54.127 9.34983e-05 54.9878 9.34983e-05H61.0484C61.9111 9.34983e-05 62.6087 0.66711 62.6087 1.48653ZM23.003 34.6522L30.6261 16.0965C30.9254 15.3272 31.8707 14.7019 32.7303 14.7019H40.4101L28.9904 42.579C28.6789 43.3449 27.7273 43.9671 26.8657 43.9687H19.2735C18.4108 43.9671 17.4592 43.3449 17.1487 42.579L6.21398 16.0866C5.89815 15.3222 6.3398 14.7019 7.20465 14.7019H14.9135L23.003 34.6522ZM7.26035 0.0143052C8.12403 0.0143052 9.10449 0.623353 9.45329 1.37489L12.0331 7.70865H4.24084C3.37815 7.70865 2.42772 7.08689 2.12111 6.31889L0.133685 1.3618C-0.229646 0.618304 0.172943 0.0143052 1.03446 0.0143052H7.26035ZM38.8044 0.0143052H45.0291C45.8918 0.0143052 46.2944 0.618304 45.9281 1.3618L43.9415 6.31889C43.6349 7.08689 42.6847 7.70865 41.8228 7.70865H34.0295L36.6074 1.37489C36.9593 0.623353 37.9408 0.0143052 38.8044 0.0143052ZM118.529 36.2758C119.391 36.2758 120.089 36.9399 120.089 37.7641V42.4822C120.089 43.3011 119.391 43.9687 118.529 43.9687H112.163C111.3 43.9687 110.138 43.4713 109.568 42.8553L87.7855 8.9547C87.3326 8.25814 86.2738 7.69435 85.4121 7.69435H82.5545C81.6928 7.69435 80.9911 7.02826 80.9911 6.20735V1.48662C80.9911 0.667203 81.6897 0 82.5545 0H88.9167C89.7803 0 90.9414 0.497411 91.512 1.113L113.295 35.0125C113.746 35.7085 114.803 36.2758 115.665 36.2758H118.529ZM89.4697 42.4822C89.4697 43.3011 88.7711 43.9687 87.9073 43.9687H82.5547C81.6928 43.9687 80.9922 43.3011 80.9922 42.4822V16.8766C80.9922 16.0542 81.5318 15.3887 82.1964 15.3887H83.6537C84.0849 15.3887 84.3656 15.6714 84.5937 16.0204L89.4913 23.6066L89.4697 42.4822ZM147.61 7.6944V27.7965C147.61 28.6169 146.909 29.283 146.049 29.283H138.428V7.6944H128.428C127.567 7.6944 126.868 7.02832 126.868 6.20741V1.48799C126.868 0.667073 127.567 0.00155207 128.428 0.00155207L157.608 5.6099e-05C158.47 5.6099e-05 159.169 0.667073 159.169 1.48649V6.20741C159.169 7.02832 158.47 7.6944 157.608 7.6944H147.61ZM138.427 42.4822V36.2758H146.046C146.909 36.2758 147.608 36.9399 147.608 37.7643V42.4822C147.608 43.3011 146.909 43.9687 146.046 43.9687H139.989C139.126 43.9687 138.427 43.3011 138.427 42.4822ZM111.614 1.48653C111.614 0.66711 112.31 9.34983e-05 113.174 9.34983e-05H118.529C119.391 9.34983e-05 120.089 0.66711 120.089 1.48653V27.0936C120.089 27.914 119.552 28.5816 118.885 28.5816H117.43C116.997 28.5816 116.716 28.2988 116.49 27.9478L111.59 20.3636L111.614 1.48653ZM177.998 9.33071L170.375 27.8884C170.075 28.6577 169.131 29.2831 168.269 29.2831H160.59L172.011 1.40543C172.32 0.638182 173.275 0.0158573 174.134 0.0143613H181.726C182.59 0.0158573 183.542 0.638182 183.851 1.40543L194.788 27.8978C195.104 28.6607 194.661 29.2831 193.797 29.2831H186.087L177.998 9.33071ZM193.741 43.9687C192.877 43.9687 191.896 43.361 191.546 42.61L188.967 36.2744H196.76C197.622 36.2744 198.572 36.8961 198.879 37.6639L200.866 42.6212C201.229 43.366 200.828 43.9687 199.966 43.9687H193.741ZM162.196 43.9687H155.972C155.108 43.9687 154.708 43.366 155.073 42.6212L157.058 37.6639C157.366 36.8961 158.315 36.2744 159.177 36.2744H166.97L164.39 42.61C164.041 43.361 163.059 43.9687 162.196 43.9687Z" fill="#0052FF"></path>
</svg>